<?xml version="1.0" encoding="UTF-8"?>
<svg xmlns="http://www.w3.org/2000/svg" xmlns:xlink="http://www.w3.org/1999/xlink" width="1024" height="1024" viewBox="0 0 1024 1024">
  <defs>
    <linearGradient id="background" x1="0" y1="0" x2="1" y2="1">
      <stop offset="0" stop-color="#11152c"/>
      <stop offset="0.52" stop-color="#090a17"/>
      <stop offset="1" stop-color="#220b2e"/>
    </linearGradient>
    <linearGradient id="spectrum" x1="0" y1="0" x2="1" y2="1">
      <stop offset="0" stop-color="#67f5ff"/>
      <stop offset="0.48" stop-color="#8d72ff"/>
      <stop offset="1" stop-color="#ff4fc4"/>
    </linearGradient>
    <radialGradient id="core" cx="35%" cy="28%" r="75%">
      <stop offset="0" stop-color="#ffffff"/>
      <stop offset="0.28" stop-color="#bfeeff"/>
      <stop offset="0.63" stop-color="#7964df"/>
      <stop offset="1" stop-color="#241442"/>
    </radialGradient>
    <radialGradient id="aura" cx="50%" cy="50%" r="50%">
      <stop offset="0.4" stop-color="#916dff" stop-opacity="0.68"/>
      <stop offset="1" stop-color="#916dff" stop-opacity="0"/>
    </radialGradient>
    <clipPath id="tileClip">
      <rect x="48" y="48" width="928" height="928" rx="210"/>
    </clipPath>
    <filter id="shadow" x="-30%" y="-30%" width="160%" height="170%">
      <feGaussianBlur in="SourceAlpha" stdDeviation="22" result="blur"/>
      <feOffset dy="22" result="offset"/>
      <feColorMatrix in="offset" values="0 0 0 0 0.02 0 0 0 0 0.01 0 0 0 0 0.08 0 0 0 .65 0"/>
      <feMerge><feMergeNode/><feMergeNode in="SourceGraphic"/></feMerge>
    </filter>
    <filter id="glow" x="-80%" y="-80%" width="260%" height="260%">
      <feGaussianBlur stdDeviation="10" result="blur"/>
      <feMerge><feMergeNode in="blur"/><feMergeNode in="SourceGraphic"/></feMerge>
    </filter>
    <line id="bar-long" x1="512" y1="287" x2="512" y2="149"/>
    <line id="bar-medium" x1="512" y1="287" x2="512" y2="180"/>
    <line id="bar-short" x1="512" y1="287" x2="512" y2="215"/>
  </defs>

  <g filter="url(#shadow)">
    <rect x="48" y="48" width="928" height="928" rx="210" fill="url(#background)"/>
    <path d="M80 328C213 118 421 63 628 102C777 130 896 228 955 367V180C955 108 916 69 844 69H180C108 69 69 108 69 180V352Z" fill="#ffffff" opacity="0.055" clip-path="url(#tileClip)"/>
    <circle cx="512" cy="512" r="365" fill="url(#aura)"/>

    <g fill="none" stroke="url(#spectrum)" stroke-width="25" stroke-linecap="round" filter="url(#glow)">
      <use xlink:href="#bar-long" transform="rotate(0 512 512)"/>
      <use xlink:href="#bar-short" transform="rotate(15 512 512)"/>
      <use xlink:href="#bar-medium" transform="rotate(30 512 512)"/>
      <use xlink:href="#bar-short" transform="rotate(45 512 512)"/>
      <use xlink:href="#bar-long" transform="rotate(60 512 512)"/>
      <use xlink:href="#bar-medium" transform="rotate(75 512 512)"/>
      <use xlink:href="#bar-short" transform="rotate(90 512 512)"/>
      <use xlink:href="#bar-medium" transform="rotate(105 512 512)"/>
      <use xlink:href="#bar-long" transform="rotate(120 512 512)"/>
      <use xlink:href="#bar-short" transform="rotate(135 512 512)"/>
      <use xlink:href="#bar-medium" transform="rotate(150 512 512)"/>
      <use xlink:href="#bar-short" transform="rotate(165 512 512)"/>
      <use xlink:href="#bar-long" transform="rotate(180 512 512)"/>
      <use xlink:href="#bar-short" transform="rotate(195 512 512)"/>
      <use xlink:href="#bar-medium" transform="rotate(210 512 512)"/>
      <use xlink:href="#bar-short" transform="rotate(225 512 512)"/>
      <use xlink:href="#bar-long" transform="rotate(240 512 512)"/>
      <use xlink:href="#bar-medium" transform="rotate(255 512 512)"/>
      <use xlink:href="#bar-short" transform="rotate(270 512 512)"/>
      <use xlink:href="#bar-medium" transform="rotate(285 512 512)"/>
      <use xlink:href="#bar-long" transform="rotate(300 512 512)"/>
      <use xlink:href="#bar-short" transform="rotate(315 512 512)"/>
      <use xlink:href="#bar-medium" transform="rotate(330 512 512)"/>
      <use xlink:href="#bar-short" transform="rotate(345 512 512)"/>
    </g>

    <circle cx="512" cy="512" r="205" fill="#090a18" stroke="#ffffff" stroke-opacity="0.16" stroke-width="8"/>
    <circle cx="512" cy="512" r="177" fill="url(#core)" stroke="#ffffff" stroke-opacity="0.38" stroke-width="6"/>
    <ellipse cx="465" cy="435" rx="84" ry="57" fill="#ffffff" opacity="0.20" transform="rotate(-22 465 435)"/>
    <path d="M373 526C403 526 410 471 440 471C471 471 477 574 508 574C539 574 547 437 578 437C609 437 615 526 651 526" fill="none" stroke="#ffffff" stroke-width="25" stroke-linecap="round" stroke-linejoin="round"/>
  </g>
</svg>
